<?xml version="1.0" encoding="UTF-8" standalone="no"?>
<svg
   xmlns:dc="http://purl.org/dc/elements/1.1/"
   xmlns:cc="http://creativecommons.org/ns#"
   xmlns:rdf="http://www.w3.org/1999/02/22-rdf-syntax-ns#"
   xmlns:svg="http://www.w3.org/2000/svg"
   xmlns="http://www.w3.org/2000/svg"
   xmlns:xlink="http://www.w3.org/1999/xlink"
   xmlns:sodipodi="http://sodipodi.sourceforge.net/DTD/sodipodi-0.dtd"
   xmlns:inkscape="http://www.inkscape.org/namespaces/inkscape"
   width="1024"
   height="1024"
   viewBox="0 0 270.93332 270.93332"
   version="1.1"
   id="svg8"
   inkscape:version="1.0.1 (0767f8302a, 2020-10-17)"
   sodipodi:docname="game_icon.svg"
   inkscape:export-filename="/home/max/gamedev/Godspeed-/Assets/Graphics/Source/game_icon.png"
   inkscape:export-xdpi="96"
   inkscape:export-ydpi="96">
  <defs
     id="defs2">
    <clipPath
       clipPathUnits="userSpaceOnUse"
       id="clipPath1015">
      <path
         id="path1017"
         style="fill:none;stroke:#000000;stroke-width:0.264583px;stroke-linecap:butt;stroke-linejoin:miter;stroke-opacity:1"
         d="M 46.566664,11.641666 11.641666,46.566664 v 59.266666 h 5.291666 v 59.26666 h -5.291666 v 59.26667 l 34.924998,34.92499 h 59.266666 v -5.29166 h 59.26666 v 5.29166 h 59.26667 l 34.92499,-34.92499 v -59.26667 h -5.29166 v -59.26666 h 5.29166 V 46.566664 L 224.36666,11.641666 h -59.26667 v 5.291666 h -59.26666 v -5.291666 z" />
    </clipPath>
  </defs>
  <sodipodi:namedview
     showborder="true"
     inkscape:showpageshadow="true"
     borderlayer="true"
     inkscape:snap-path-mask="true"
     inkscape:snap-path-clip="true"
     inkscape:snap-tangential="true"
     inkscape:snap-perpendicular="true"
     units="px"
     inkscape:pagecheckerboard="false"
     id="base"
     pagecolor="#353535"
     bordercolor="#e95420"
     borderopacity="1"
     inkscape:pageopacity="0"
     inkscape:pageshadow="2"
     inkscape:zoom="0.35"
     inkscape:cx="400"
     inkscape:cy="560"
     inkscape:document-units="px"
     inkscape:current-layer="layer1"
     inkscape:document-rotation="0"
     showgrid="false"
     inkscape:snap-bbox="true"
     inkscape:bbox-paths="true"
     inkscape:bbox-nodes="true"
     inkscape:snap-bbox-edge-midpoints="true"
     inkscape:snap-bbox-midpoints="true"
     inkscape:object-paths="true"
     inkscape:snap-intersection-paths="true"
     inkscape:snap-smooth-nodes="true"
     inkscape:snap-midpoints="true" />
  <metadata
     id="metadata5">
    <rdf:RDF>
      <cc:Work
         rdf:about="">
        <dc:format>image/svg+xml</dc:format>
        <dc:type
           rdf:resource="http://purl.org/dc/dcmitype/StillImage" />
        <dc:title></dc:title>
      </cc:Work>
    </rdf:RDF>
  </metadata>
  <g
     inkscape:label="img"
     inkscape:groupmode="layer"
     id="layer1">
    <path
       id="path1001"
       style="fill:none;stroke:#000000;stroke-width:0.999999px;stroke-linecap:butt;stroke-linejoin:miter;stroke-opacity:1"
       d="M 176 44 L 44 176 L 44 400 L 64 400 L 64 624 L 44 624 L 44 848 L 176 980 L 400 980 L 400 960 L 624 960 L 624 980 L 848 980 L 980 848 L 980 624 L 960 624 L 960 400 L 980 400 L 980 176 L 848 44 L 624 44 L 624 64 L 400 64 L 400 44 L 176 44 z "
       transform="scale(0.26458332)" />
    <image
       sodipodi:absref="/home/max/gamedev/Godspeed-/Assets/Graphics/Source/trickster_upscaled.png"
       xlink:href="trickster_upscaled.png"
       clip-path="url(#clipPath1015)"
       y="11.509378"
       x="11.509378"
       id="image906"
       style="image-rendering:optimizeSpeed"
       preserveAspectRatio="none"
       height="247.91457"
       width="247.91457" />
  </g>
  <g
     inkscape:groupmode="layer"
     id="layer2"
     inkscape:label="crop"
     style="display:inline">
    <path
       id="path1010"
       style="opacity:1;fill:none;stroke:#000000;stroke-width:32;stroke-linecap:butt;stroke-linejoin:miter;stroke-miterlimit:4;stroke-dasharray:none;stroke-opacity:1"
       d="M 176,44 44,176 V 400 H 64 V 624 H 44 v 224 l 132,132 h 224 v -20 h 224 v 20 H 848 L 980,848 V 624 H 960 V 400 h 20 V 176 L 848,44 H 624 V 64 H 400 V 44 Z"
       transform="scale(0.26458332)" />
  </g>
  <g
     inkscape:groupmode="layer"
     id="layer3"
     inkscape:label="shade"
     style="display:inline">
    <path
       id="path1003"
       style="display:inline;opacity:0.591755;fill:none;stroke:#000000;stroke-width:64;stroke-linecap:butt;stroke-linejoin:miter;stroke-miterlimit:4;stroke-dasharray:none;stroke-opacity:1"
       d="M 176,44 44,176 V 400 H 64 V 624 H 44 v 224 l 132,132 h 224 v -20 h 224 v 20 H 848 L 980,848 V 624 H 960 V 400 h 20 V 176 L 848,44 H 624 V 64 H 400 V 44 Z"
       transform="scale(0.26458332)" />
  </g>
  <inkscape:templateinfo>
    <inkscape:name>default-max</inkscape:name>
    <inkscape:date>2020-05-28</inkscape:date>
  </inkscape:templateinfo>
  <inkscape:templateinfo>
    <inkscape:name>default-max</inkscape:name>
    <inkscape:date>2020-05-28</inkscape:date>
  </inkscape:templateinfo>
</svg>
